<svg width="24" height="24" viewBox="0 0 24 24" fill="none" xmlns="http://www.w3.org/2000/svg">
<path fill-rule="evenodd" clip-rule="evenodd" d="M21.0234 3.49964C21.4374 3.4867 21.7626 3.14059 21.7496 2.72658C21.7367 2.31257 21.3906 1.98744 20.9766 2.00037L11.5952 2.29354C11.4581 2.11506 11.2425 2.00001 11 2.00001C10.7407 2.00001 10.5122 2.13158 10.3775 2.3316L9.6375 2.35472C9.50519 2.14178 9.26915 2.00001 9.00001 2.00001C8.71411 2.00001 8.46557 2.15998 8.33902 2.3953L7.67179 2.41615C7.54896 2.16948 7.29428 2.00001 7.00001 2.00001C6.68909 2.00001 6.42236 2.1892 6.30866 2.45875L4.97658 2.50037C4.56257 2.51331 4.23744 2.85942 4.25037 3.27343C4.26331 3.68744 4.60942 4.01258 5.02343 3.99964L6.25001 3.96131V4.50001H5.00001C4.58579 4.50001 4.25001 4.83579 4.25001 5.25001C4.25001 5.66422 4.58579 6.00001 5.00001 6.00001H6.25001V11H2.78612C2.50783 11 2.36869 11 2.2573 11.0601C2.16426 11.1103 2.07974 11.2017 2.03708 11.2983C1.98601 11.414 1.99632 11.5424 2.01694 11.7992C2.07911 12.5734 2.2314 13.3378 2.47074 14.0768L21.5293 14.0768C21.7686 13.3378 21.9209 12.5734 21.9831 11.7992C22.0037 11.5424 22.014 11.414 21.9629 11.2983C21.9203 11.2017 21.8357 11.1103 21.7427 11.0601C21.6313 11 21.4922 11 21.2139 11H9.75001V6.00001H10.25V8.75001C10.25 9.16422 10.5858 9.50001 11 9.50001C11.4142 9.50001 11.75 9.16422 11.75 8.75001V6.00001H21C21.4142 6.00001 21.75 5.66422 21.75 5.25001C21.75 4.83579 21.4142 4.50001 21 4.50001H11.75V3.78944L21.0234 3.49964ZM8.25001 11V6.00001H7.75001V11H8.25001ZM7.75001 4.50001V3.91444L8.25001 3.89881V4.50001H7.75001ZM9.75001 4.50001V3.85194L10.25 3.83631V4.50001H9.75001Z" fill="#282930"/>
<path opacity="0.3" d="M3.09521 15.5768L20.9044 15.5768C20.4306 16.4959 19.816 17.3377 19.0815 18.0711C18.2779 18.8735 17.3443 19.5326 16.3213 20.0211C16.1339 20.1106 16.0402 20.1554 15.9797 20.2155C15.9238 20.2712 15.8868 20.3298 15.8607 20.4042C15.8324 20.4846 15.8324 20.5808 15.8324 20.7733V21.2C15.8324 21.48 15.8324 21.62 15.7778 21.727C15.7298 21.8211 15.6532 21.8976 15.559 21.9455C15.4519 22 15.3117 22 15.0312 22H8.96841C8.68796 22 8.54774 22 8.44062 21.9455C8.3464 21.8976 8.26979 21.8211 8.22178 21.727C8.1672 21.62 8.1672 21.48 8.1672 21.2V20.7733C8.1672 20.5808 8.1672 20.4846 8.13897 20.4042C8.11281 20.3298 8.07586 20.2712 8.01988 20.2155C7.95946 20.1554 7.86574 20.1107 7.67831 20.0211C6.65536 19.5326 5.72172 18.8735 4.91807 18.0711C4.18361 17.3377 3.56907 16.4959 3.09521 15.5768Z" fill="#282930"/>
</svg>
