<svg width="24" height="24" viewBox="0 0 24 24" fill="none" xmlns="http://www.w3.org/2000/svg">
<path d="M8.52193 2.97873C7.91402 2.67247 7.22715 2.5 6.5 2.5C4.01472 2.5 2 4.51472 2 7C2 7.48538 2.07685 7.95281 2.21904 8.39079L6.09986 20.5393C6.31645 21.1013 6.86166 21.5 7.5 21.5C8.13834 21.5 8.68355 21.1013 8.90014 20.5393L9.68307 18.5592C10.0548 17.6447 10.9521 17 12 17C13.0479 17 13.9452 17.6447 14.3169 18.5592L15.1327 20.6176C15.3681 21.138 15.8918 21.5 16.5 21.5C17.1391 21.5 17.6849 21.1003 17.9009 20.5372L21 10.8455L12 5.21154L9 3.25L8.77751 3.11807L8.74612 3.09978C8.67267 3.05739 8.59792 3.01701 8.52193 2.97873Z" fill="#282930"/>
<path opacity="0.4" d="M21.7982 8.33661L21.75 8.5L21 10.8455L12 5.21154L12.0012 5.21074L13.0964 4.49467L15 3.25L15.1147 3.1835C15.8062 2.75038 16.6239 2.5 17.5 2.5C19.9853 2.5 22 4.51472 22 7C22 7.46542 21.9293 7.91433 21.7982 8.33661Z" fill="#282930"/>
</svg>
