<svg width="24" height="24" viewBox="0 0 24 24" fill="none" xmlns="http://www.w3.org/2000/svg">
<path opacity="0.4" fill-rule="evenodd" clip-rule="evenodd" d="M10.6899 2.40862L3.39128 7.49301C2.4791 8.12845 1.95772 9.1625 2.00269 10.247L2.36119 18.8919C2.4332 20.6282 3.91343 22 5.71495 22H8.08415C8.39311 22 8.64356 21.7584 8.64356 21.4604V19C8.64356 17.3431 9.98671 16 11.6436 16H12.3564C14.0133 16 15.3564 17.3431 15.3564 19V21.4604C15.3564 21.7584 15.6069 22 15.9158 22H18.285C20.0866 22 21.5668 20.6282 21.6388 18.8919L21.9973 10.247C22.0423 9.1625 21.5209 8.12845 20.6087 7.49301L13.3101 2.40861C12.528 1.86379 11.472 1.8638 10.6899 2.40862Z" fill="#282930"/>
<path d="M9.32373 11.25C8.90952 11.25 8.57373 11.5858 8.57373 12C8.57373 12.4142 8.90952 12.75 9.32373 12.75H14.6764C15.0906 12.75 15.4264 12.4142 15.4264 12C15.4264 11.5858 15.0906 11.25 14.6764 11.25H9.32373Z" fill="#282930"/>
</svg>
