<svg width="24" height="24" viewBox="0 0 24 24" fill="none" xmlns="http://www.w3.org/2000/svg">
<path opacity="0.4" d="M12 22C17.5228 22 22 17.5228 22 12C22 6.47715 17.5228 2 12 2C6.47715 2 2 6.47715 2 12C2 17.5228 6.47715 22 12 22Z" fill="#282930"/>
<path fill-rule="evenodd" clip-rule="evenodd" d="M7.43545 8.00613C7.70821 7.6944 8.18203 7.66282 8.49376 7.93558L10.0637 9.30929C10.6329 9.8073 10.6329 10.6927 10.0637 11.1907L8.49376 12.5644C8.18203 12.8372 7.70821 12.8056 7.43545 12.4939C7.16269 12.1822 7.19428 11.7083 7.50601 11.4356L8.86094 10.25L7.50601 9.06444C7.19428 8.79168 7.16269 8.31786 7.43545 8.00613ZM16.5643 8.00613C16.8371 8.31786 16.8055 8.79168 16.4938 9.06444L15.1388 10.25L16.4938 11.4356C16.8055 11.7083 16.8371 12.1822 16.5643 12.4939C16.2916 12.8056 15.8177 12.8372 15.506 12.5644L13.936 11.1907C13.3669 10.6927 13.3669 9.80731 13.936 9.30929L15.506 7.93558C15.8177 7.66282 16.2916 7.6944 16.5643 8.00613ZM7.25804 14.7466C7.53608 14.4395 8.01037 14.416 8.3174 14.6941C8.88145 15.2049 10.2097 16.19 11.9998 16.19C13.7899 16.19 15.1182 15.2049 15.6823 14.6941C15.9893 14.416 16.4636 14.4395 16.7416 14.7466C17.0197 15.0536 16.9961 15.5279 16.6891 15.8059C16.0127 16.4185 14.3356 17.69 11.9998 17.69C9.6641 17.69 7.98695 16.4185 7.31054 15.8059C7.00351 15.5279 6.98 15.0536 7.25804 14.7466Z" fill="#282930"/>
</svg>
