<svg width="24" height="24" viewBox="0 0 24 24" fill="none" xmlns="http://www.w3.org/2000/svg">
<path fill-rule="evenodd" clip-rule="evenodd" d="M3.8501 4.00617C3.8501 2.87842 4.78442 2 5.89216 2H12.0001C14.7296 2 16.9787 4.15662 16.9787 6.86111C16.9787 8.24508 16.3897 9.48558 15.4488 10.367C18.1283 10.9581 20.1501 13.2913 20.1501 16.1111C20.1501 19.3832 17.4278 22 14.1144 22H6.24454C4.94218 22 3.8501 20.9682 3.8501 19.6512V4.00617ZM5.3501 11.7222V19.6512C5.3501 20.1002 5.7305 20.5 6.24454 20.5H14.1144C16.6394 20.5 18.6501 18.5153 18.6501 16.1111C18.6501 13.707 16.6394 11.7222 14.1144 11.7222H5.3501ZM5.3501 10.2222H12.0001C13.9413 10.2222 15.4787 8.69763 15.4787 6.86111C15.4787 5.0246 13.9413 3.5 12.0001 3.5H5.89216C5.57273 3.5 5.3501 3.7464 5.3501 4.00617V10.2222Z" fill="#282930"/>
</svg>
